
<svg xmlns="http://www.w3.org/2000/svg" width="128" height="128"><path d="M113.08 70.37c-6.36 6.54-15.47 8.35-25.77 8.69-1.15.04-2.32.06-3.5.06h-.02c-.03 1.46-.07 2.96-.16 4.31-.31 4.85-6.87 8.23-12.22 14.51l-4.24-2.99s5.84-5.16 8.34-9.88c1.25-2.35-.81-3.91-2.17-6.06-.01-.02-.03-.04-.04-.06-1.3-.04-2.61-.08-3.92-.11-1.37-.04-2.75-.07-4.13-.09a80.041 80.041 0 0 1-13.63-.78c-1.14-.18-2.29-.41-3.44-.7h-.01c-.17.8-.34 1.58-.52 2.32-1.13 4.72-8.18 6.92-14.53 12.19l-3.66-3.67s6.64-4.08 9.92-8.3c1.09-1.41 1.17-3.14.92-5.12a.277.277 0 0 0-.01-.09c-.01-.1-.02-.21-.04-.32a27.9 27.9 0 0 1-3.99-2.58c-4.33-3.31-8.11-8.19-10.59-15.37a15.329 15.329 0 0 1-7.84-10.75C16.33 37.75 6.5 36.83 6.5 31.87c0-4.43 9.29-3.06 13.29-6.16s11.55-1.74 16.5 6.86 28.09 31.01 57.44 29.79c17.26-.72 21.92-9.59 21.92-17.88 0-5.81-2.29-11.34-4.15-13.56a5.568 5.568 0 0 1 5.95 3c4.25 8.4 8 21.06-4.37 36.45z" fill="#bae543"/><circle cx="25.677" cy="35" r="3" fill="#a9ce24"/><g fill="#072130"><path d="M119.014 33.134A7.277 7.277 0 0 0 111.2 29.2a1.75 1.75 0 0 0-1.037 2.847c1.554 1.854 3.742 6.938 3.742 12.436 0 4.865-1.671 8.716-4.964 11.445a1.75 1.75 0 1 0 2.232 2.7c4.077-3.378 6.232-8.268 6.232-14.141a28.073 28.073 0 0 0-2.312-10.853 3.944 3.944 0 0 1 .8 1.083c3.909 7.727 7.731 19.7-4.12 34.5-6.566 6.692-16.368 7.98-26.2 8.143.027-2.968-.021-5.4-.025-5.571a1.751 1.751 0 0 0-1.749-1.714h-.037a1.751 1.751 0 0 0-1.714 1.786c0 .067.137 6.756-.16 11.47-.151 2.4-2.627 4.637-5.761 7.474-1.565 1.416-3.3 2.989-4.983 4.81l-1.2-.849a40.963 40.963 0 0 0 7.127-8.869c1.485-2.8-.146-4.967-1.337-6.551-1.734-2.302-3.101-4.115 1.077-8.856a1.75 1.75 0 0 0-2.627-2.313c-3.366 3.821-3.967 6.7-3.512 8.947-1.794-.05-3.6-.1-5.422-.124h-.895a68.135 68.135 0 0 1-14.132-1.072 204.178 204.178 0 0 0 1.31-7.493 1.75 1.75 0 1 0-3.46-.528c-.011.066-1.025 6.679-2.127 11.273a5.962 5.962 0 0 1-2.1 3 1.75 1.75 0 0 0 2.305 2.634A9.232 9.232 0 0 0 49.35 80c.05-.21.1-.427.149-.644A71.221 71.221 0 0 0 64.362 80.5h.862c2.376.035 4.747.1 7.137.173.191.268.383.527.566.77 1.261 1.678 1.418 2.1 1.042 2.806-1.869 3.529-5.862 7.44-7.369 8.851-1.5-.191-4.495-.4-6.488.585a1.75 1.75 0 1 0 1.553 3.136c1.031-.509 3.316-.43 4.828-.2l.143.1-3.236 2.837a1.75 1.75 0 0 0 2.31 2.63l3.867-3.395.395.278a11.086 11.086 0 0 1-.272 4.329 1.75 1.75 0 0 0 3.4.825 14.718 14.718 0 0 0 .286-5.871 69.276 69.276 0 0 1 5.077-4.958c3.576-3.237 6.664-6.033 6.9-9.848.054-.857.094-1.77.124-2.693 10.662-.166 21.371-1.594 28.838-9.26.038-.04.075-.081.11-.125 14.715-18.301 7.085-33.384 4.579-38.336z"/><path d="M101.649 63.037a1.754 1.754 0 0 0 .428-.053 28.737 28.737 0 0 0 3.025-.936 1.75 1.75 0 1 0-1.225-3.278 25.174 25.174 0 0 1-2.653.819 1.75 1.75 0 0 0 .425 3.448zM44.078 47.515a79.225 79.225 0 0 1-5.337-5.084 1.75 1.75 0 0 0-2.533 2.415 83.298 83.298 0 0 0 5.573 5.31 1.75 1.75 0 1 0 2.3-2.641zM20.927 35a4.75 4.75 0 1 0 4.75-4.75 4.756 4.756 0 0 0-4.75 4.75zm6 0a1.25 1.25 0 1 1-1.25-1.25 1.251 1.251 0 0 1 1.25 1.25z"/><path d="M41.382 59.117a1.75 1.75 0 0 0-2.342.8c-1.9 3.876-1.667 7.586-1.169 10.767a30.11 30.11 0 0 1-10.547-14.925 1.748 1.748 0 0 0-.924-1.019 13.566 13.566 0 0 1-6.851-9.489c-.945-4.932-4.623-7.45-7.579-9.473-2.306-1.578-3.72-2.612-3.72-3.908 0-1.052 2.126-1.552 5.129-2.143 2.693-.531 5.478-1.08 7.485-2.635a6.193 6.193 0 0 1 5.083-1c1.935.381 5.656 1.841 8.826 7.349 4.648 8.075 27.343 30.716 56.67 30.714q1.173 0 2.36-.049 1.008-.041 1.963-.119a1.75 1.75 0 0 0-.284-3.489q-.885.072-1.824.111a60.991 60.991 0 0 1-31.114-7.554 8.22 8.22 0 0 1 2.876-1.535 1.75 1.75 0 1 0-.74-3.42 11.6 11.6 0 0 0-5.329 3.153q-2.179-1.3-4.185-2.673a8.106 8.106 0 0 1 3.094-1.73 1.75 1.75 0 0 0-.74-3.42 11.441 11.441 0 0 0-5.249 3.07q-1.731-1.3-3.292-2.618a7.924 7.924 0 0 1 3.191-1.8 1.75 1.75 0 0 0-.74-3.42 11.327 11.327 0 0 0-5.087 2.9c-1.036-.954-2-1.892-2.875-2.8a11.833 11.833 0 0 1 3.612-2.112 1.749 1.749 0 1 0-1.16-3.3 15.131 15.131 0 0 0-4.815 2.828 37.767 37.767 0 0 1-2.421-3.112 7.986 7.986 0 0 1 3.5-2.106 1.75 1.75 0 1 0-.74-3.42 11.314 11.314 0 0 0-4.67 2.514c-2.75-4.033-6.3-6.638-10.148-7.394a9.632 9.632 0 0 0-7.9 1.667C17.368 25.373 15 25.84 12.7 26.292c-3.728.735-7.953 1.567-7.953 5.578 0 3.208 2.666 5.032 5.243 6.8 2.677 1.832 5.445 3.727 6.118 7.242a17.161 17.161 0 0 0 8.136 11.644c2.915 8.02 7.756 13.98 14.365 17.779a4.588 4.588 0 0 1-.615 3.4c-2.451 3.156-7.051 6.325-8.773 7.454-1.446-.446-4.359-1.168-6.492-.537a1.75 1.75 0 1 0 .992 3.357c1.1-.327 3.339.143 4.789.629l.124.124-3.674 2.244a1.75 1.75 0 1 0 1.825 2.987l4.391-2.682.341.343a11.065 11.065 0 0 1-1.008 4.213 1.75 1.75 0 0 0 .908 2.3 1.724 1.724 0 0 0 .7.146 1.748 1.748 0 0 0 1.6-1.05 14.715 14.715 0 0 0 1.288-5.742c1.492-1.17 2.986-2.174 4.17-2.938a1.75 1.75 0 0 0-1.9-2.941c-1.143.737-2.564 1.68-4.024 2.8L32.216 88.4a40.934 40.934 0 0 0 8.542-7.515c1.553-2 1.574-4.311 1.233-6.775v-.016c-.1-.722-.23-1.457-.363-2.2-.6-3.352-1.217-6.818.556-10.432a1.749 1.749 0 0 0-.802-2.345z"/></g>
<style>
        path { fill: #000; }
        @media (prefers-color-scheme: dark) {
            path { fill: #FFF; }
        }
    </style></svg>